<svg 
 xmlns="http://www.w3.org/2000/svg"
 xmlns:xlink="http://www.w3.org/1999/xlink"
 width="173" height="56"
 viewbox="0 0 173 56">
<path fill-rule="evenodd"  fill="rgb(0, 0, 0)"
 d="M168.090,33.247 C168.090,33.127 167.970,31.807 167.730,29.287 C165.930,28.867 164.370,28.627 163.050,28.627 L162.990,28.627 C161.310,28.627 159.930,29.107 158.850,29.947 C157.771,30.787 157.231,31.687 157.231,32.707 C157.231,33.727 157.471,34.507 157.951,34.987 C158.791,35.947 159.930,36.607 161.430,37.087 C162.930,37.567 164.190,37.867 165.150,38.227 L168.030,39.307 C168.990,39.667 169.830,40.267 170.550,40.867 C172.230,42.187 173.010,43.927 173.010,46.147 C173.010,49.027 172.050,51.366 170.070,53.106 C168.030,54.906 165.270,55.926 162.030,55.926 C158.791,55.926 155.431,55.386 152.191,54.306 L152.191,46.387 L154.351,46.387 C154.831,46.387 155.131,46.627 155.251,47.107 C155.251,47.287 155.371,48.547 155.611,50.946 C157.291,51.786 159.390,52.146 161.790,52.146 C163.770,52.146 165.330,51.606 166.470,50.646 C167.490,49.746 168.030,48.727 168.030,47.587 C168.030,46.447 167.790,45.607 167.310,45.067 C166.830,44.527 166.230,43.987 165.510,43.627 C164.790,43.267 163.950,42.907 162.990,42.667 C160.350,41.827 158.491,41.227 157.411,40.747 C156.331,40.267 155.431,39.667 154.711,39.067 C153.031,37.687 152.191,35.827 152.191,33.427 C152.191,30.967 153.151,28.987 155.071,27.307 C157.105,25.513 159.856,24.673 163.559,24.668 C165.655,24.673 168.284,25.212 171.450,26.287 L171.450,28.387 L171.450,34.087 L169.110,34.087 C168.510,34.087 168.210,33.847 168.090,33.247 ZM163.590,24.668 C163.580,24.668 163.570,24.668 163.559,24.668 C163.550,24.668 163.540,24.668 163.530,24.668 L163.590,24.668 ZM140.791,55.386 L138.871,55.386 C138.391,55.386 137.971,55.266 137.611,55.146 C137.251,55.026 137.131,54.666 137.011,54.186 L136.411,51.306 C135.571,52.026 134.731,52.686 134.011,53.286 C133.291,53.886 132.451,54.366 131.611,54.726 C130.771,55.086 129.931,55.386 128.971,55.626 C128.011,55.866 126.931,55.926 125.731,55.926 C124.531,55.926 123.511,55.746 122.491,55.386 C121.472,55.026 120.512,54.606 119.792,53.946 C119.072,53.286 118.472,52.446 117.992,51.426 C117.512,50.406 117.332,49.207 117.332,47.827 C117.332,46.627 117.632,45.427 118.292,44.347 C118.952,43.267 120.092,42.187 121.532,41.347 C122.971,40.507 124.891,39.727 127.291,39.187 C129.691,38.647 132.571,38.407 136.051,38.407 L136.051,36.067 C136.051,33.667 135.511,31.867 134.491,30.667 C133.471,29.467 131.971,28.807 129.991,28.807 C128.671,28.807 127.591,28.987 126.691,29.347 C125.791,29.707 125.071,30.007 124.411,30.427 C123.751,30.847 123.151,31.147 122.671,31.507 C122.192,31.867 121.772,31.987 121.292,31.987 C120.932,31.987 120.572,31.927 120.332,31.747 C120.092,31.567 119.852,31.267 119.732,31.027 L118.772,29.347 C120.452,27.727 122.252,26.587 124.171,25.747 C126.091,24.907 128.251,24.548 130.651,24.548 C132.331,24.548 133.891,24.787 135.211,25.387 C136.531,25.987 137.611,26.707 138.511,27.667 C139.411,28.627 140.071,29.827 140.551,31.267 C141.031,32.707 141.211,34.267 141.211,35.947 L141.211,51.126 C142.051,51.306 143.851,51.666 144.211,51.786 L144.211,51.666 C144.751,51.786 145.111,52.266 145.111,52.806 L145.111,55.386 L141.211,55.386 L140.791,55.386 ZM135.931,41.827 C133.471,41.827 131.371,41.947 129.691,42.247 C128.011,42.547 126.571,43.027 125.491,43.507 C124.411,43.987 123.571,44.587 123.091,45.307 C122.611,46.027 122.372,46.747 122.372,47.587 C122.372,48.427 122.551,49.027 122.791,49.626 C123.031,50.226 123.391,50.706 123.871,51.066 C124.351,51.426 124.831,51.666 125.431,51.846 C126.031,52.026 126.691,52.146 127.411,52.146 C128.371,52.146 129.151,52.026 129.931,51.846 C130.711,51.666 131.431,51.426 132.151,51.066 C132.871,50.706 133.531,50.226 134.131,49.746 C134.731,49.267 135.331,48.667 135.931,48.067 L135.931,41.827 ZM102.872,50.766 C103.472,51.366 104.372,51.666 105.332,51.666 C105.932,51.666 106.412,51.546 106.832,51.426 C107.252,51.306 107.612,51.126 107.912,50.946 C108.212,50.766 108.392,50.586 108.632,50.466 C108.872,50.346 109.112,50.226 109.232,50.226 C109.472,50.226 109.712,50.346 109.952,50.706 L111.511,53.226 C110.551,54.066 109.472,54.786 108.152,55.266 C106.832,55.746 105.512,55.986 104.132,55.986 C101.732,55.986 99.932,55.266 98.612,53.946 C97.292,52.626 96.692,50.706 96.692,48.187 L96.692,29.587 L93.032,29.587 C92.672,29.587 92.432,29.527 92.192,29.347 C91.952,29.167 91.892,28.807 91.892,28.447 L91.892,26.347 L96.872,25.687 L98.072,16.268 C98.072,15.968 98.192,15.728 98.432,15.548 C98.672,15.368 98.912,15.308 99.272,15.308 L101.972,15.308 L101.972,25.747 L110.671,25.747 L110.671,29.647 L101.972,29.647 L101.972,47.887 C101.972,49.207 102.272,50.166 102.872,50.766 ZM82.891,51.666 C81.631,52.986 80.071,54.066 78.271,54.786 C76.471,55.506 74.492,55.866 72.272,55.866 C70.052,55.866 68.072,55.506 66.272,54.786 C64.472,54.066 62.912,52.986 61.652,51.666 C60.392,50.346 59.432,48.667 58.712,46.747 C57.992,44.827 57.752,42.667 57.752,40.267 C57.752,37.867 57.992,35.707 58.712,33.787 C59.432,31.867 60.392,30.187 61.652,28.867 C62.912,27.547 64.472,26.467 66.272,25.747 C68.072,25.027 70.052,24.668 72.272,24.668 C74.492,24.668 76.471,25.027 78.271,25.747 C80.071,26.467 81.631,27.547 82.891,28.867 C84.151,30.187 85.111,31.867 85.771,33.787 C86.431,35.707 86.791,37.867 86.791,40.267 C86.791,42.667 86.431,44.827 85.771,46.747 C85.111,48.667 84.151,50.346 82.891,51.666 ZM78.991,31.867 C77.551,29.827 75.272,28.867 72.272,28.867 C70.712,28.867 69.392,29.107 68.312,29.587 C67.232,30.067 66.272,30.907 65.552,31.867 C64.832,32.827 64.232,34.027 63.872,35.467 C63.512,36.907 63.272,38.587 63.272,40.387 C63.272,42.187 63.512,43.747 63.872,45.187 C64.232,46.627 64.832,47.827 65.552,48.787 C66.272,49.746 67.232,50.466 68.312,50.946 C69.392,51.426 70.712,51.786 72.272,51.786 C75.272,51.786 77.551,50.826 78.991,48.787 C80.431,46.747 81.211,43.927 81.211,40.327 C81.211,36.727 80.431,33.907 78.991,31.867 ZM51.931,52.926 C51.931,52.326 51.571,51.906 50.971,51.786 C50.611,51.666 49.471,51.426 47.551,51.066 L47.551,36.127 C47.551,32.647 46.651,29.827 44.971,27.787 C43.171,25.627 40.651,24.608 37.411,24.608 C33.692,24.608 30.332,26.227 27.332,29.467 L27.332,29.527 L26.852,26.227 C26.612,25.507 26.132,25.147 25.412,25.147 L22.292,25.147 L17.972,25.147 L17.972,27.667 C17.972,28.267 18.212,28.687 18.812,28.807 C19.172,28.927 20.372,29.167 22.292,29.527 L22.292,51.186 L18.812,51.846 C18.212,51.966 17.972,52.386 17.972,52.986 L17.972,55.000 L0.000,55.000 L0.000,0.000 L55.000,0.000 L55.000,55.000 L51.931,55.000 L51.931,52.926 ZM35.851,28.867 C40.111,28.867 42.211,31.387 42.211,36.187 L42.211,55.000 L31.952,55.000 L31.952,52.986 C31.952,52.386 31.652,51.966 31.052,51.846 C28.892,51.366 27.692,51.126 27.572,51.126 L27.572,33.127 C30.092,30.307 32.852,28.867 35.851,28.867 Z"/>
</svg>