<svg 
 xmlns="http://www.w3.org/2000/svg"
 xmlns:xlink="http://www.w3.org/1999/xlink"
 width="16" height="16"
 viewbox="0 0 16 16">
<path fill-rule="evenodd"  fill="rgb(0, 0, 0)"
 d="M15.105,15.399 C15.105,15.224 15.001,15.102 14.826,15.067 C14.722,15.032 14.390,14.962 13.831,14.857 L13.831,10.512 C13.831,9.499 13.570,8.679 13.081,8.086 C12.557,7.457 11.824,7.161 10.882,7.161 C9.800,7.161 8.822,7.632 7.950,8.574 L7.950,8.592 L7.810,7.632 C7.740,7.422 7.601,7.318 7.391,7.318 L6.484,7.318 L5.227,7.318 L5.227,8.051 C5.227,8.225 5.297,8.347 5.471,8.382 C5.576,8.417 5.925,8.487 6.484,8.592 L6.484,14.892 L5.471,15.084 C5.297,15.119 5.227,15.241 5.227,15.416 L5.227,16.002 L-0.001,16.002 L-0.001,0.002 L15.998,0.002 L15.998,16.002 L15.105,16.002 L15.105,15.399 ZM10.428,8.400 C11.667,8.400 12.278,9.133 12.278,10.529 L12.278,16.002 L9.294,16.002 L9.294,15.416 C9.294,15.241 9.206,15.119 9.032,15.084 C8.403,14.945 8.054,14.875 8.019,14.875 L8.019,9.639 C8.752,8.819 9.555,8.400 10.428,8.400 Z"/>
</svg>