<svg xmlns="http://www.w3.org/2000/svg" width="173" height="56"><path fill-rule="evenodd" d="M168.09 33.247c0-.12-.12-1.44-.36-3.96-1.8-.42-3.36-.66-4.68-.66h-.06c-1.68 0-3.06.48-4.14 1.32-1.079.84-1.619 1.74-1.619 2.76 0 1.02.24 1.8.72 2.28.84.96 1.979 1.62 3.479 2.1s2.76.78 3.72 1.14l2.88 1.08c.96.36 1.8.96 2.52 1.56 1.68 1.32 2.46 3.06 2.46 5.28 0 2.88-.96 5.219-2.94 6.959-2.04 1.8-4.8 2.82-8.04 2.82-3.239 0-6.599-.54-9.839-1.62v-7.919h2.16c.48 0 .78.24.9.72 0 .18.12 1.44.36 3.839 1.68.84 3.779 1.2 6.179 1.2 1.98 0 3.54-.54 4.68-1.5 1.02-.9 1.56-1.919 1.56-3.059 0-1.14-.24-1.98-.72-2.52s-1.08-1.08-1.8-1.44c-.72-.36-1.56-.72-2.52-.96-2.64-.84-4.499-1.44-5.579-1.92s-1.98-1.08-2.7-1.68c-1.68-1.38-2.52-3.24-2.52-5.64 0-2.46.96-4.44 2.88-6.12 2.034-1.794 4.785-2.634 8.488-2.639 2.096.005 4.725.544 7.891 1.619V34.087h-2.34c-.6 0-.9-.24-1.02-.84zm-4.5-8.579h-.06.06zm-22.799 30.718h-1.92c-.48 0-.9-.12-1.26-.24s-.48-.48-.6-.96l-.6-2.88c-.84.72-1.68 1.38-2.4 1.98-.72.6-1.56 1.08-2.4 1.44-.84.36-1.68.66-2.64.9-.96.24-2.04.3-3.24.3-1.2 0-2.22-.18-3.24-.54-1.019-.36-1.979-.78-2.699-1.44-.72-.66-1.32-1.5-1.8-2.52s-.66-2.219-.66-3.599c0-1.2.3-2.4.96-3.48.66-1.08 1.8-2.16 3.24-3 1.439-.84 3.359-1.62 5.759-2.16 2.4-.54 5.28-.78 8.76-.78v-2.34c0-2.4-.54-4.2-1.56-5.4-1.02-1.2-2.52-1.86-4.5-1.86-1.32 0-2.4.18-3.3.54-.9.36-1.62.66-2.28 1.08-.66.42-1.26.72-1.74 1.08-.479.36-.899.48-1.379.48-.36 0-.72-.06-.96-.24s-.48-.48-.6-.72l-.96-1.68c1.68-1.62 3.48-2.76 5.399-3.6 1.92-.84 4.08-1.199 6.48-1.199 1.68 0 3.24.239 4.56.839 1.32.6 2.4 1.32 3.3 2.28.9.96 1.56 2.16 2.04 3.6s.66 3 .66 4.68v15.179c.84.18 2.64.54 3 .66v-.12c.54.12.9.6.9 1.14v2.58h-4.32zm-4.86-13.559c-2.46 0-4.56.12-6.24.42-1.68.3-3.12.78-4.2 1.26s-1.92 1.08-2.4 1.8-.719 1.44-.719 2.28c0 .84.179 1.44.419 2.039.24.6.6 1.08 1.08 1.44.48.36.96.6 1.56.78.6.18 1.26.3 1.98.3.96 0 1.74-.12 2.52-.3s1.5-.42 2.22-.78c.72-.36 1.38-.84 1.98-1.32.6-.479 1.2-1.079 1.8-1.679v-6.24zm-33.059 8.939c.6.6 1.5.9 2.46.9.6 0 1.08-.12 1.5-.24.42-.12.78-.3 1.08-.48.3-.18.48-.36.72-.48s.48-.24.6-.24c.24 0 .48.12.72.48l1.559 2.52c-.96.84-2.039 1.56-3.359 2.04a11.6 11.6 0 01-4.02.72c-2.4 0-4.2-.72-5.52-2.04-1.32-1.32-1.92-3.24-1.92-5.759v-18.6h-3.66c-.36 0-.6-.06-.84-.24s-.3-.54-.3-.9v-2.1l4.98-.66 1.2-9.419c0-.3.12-.54.36-.72.24-.18.48-.24.84-.24h2.7v10.439h8.699v3.9h-8.699v18.24c0 1.32.3 2.279.9 2.879zm-19.981.9c-1.26 1.32-2.82 2.4-4.62 3.12-1.8.72-3.779 1.08-5.999 1.08-2.22 0-4.2-.36-6-1.08-1.8-.72-3.36-1.8-4.62-3.12-1.26-1.32-2.22-2.999-2.94-4.919-.72-1.92-.96-4.08-.96-6.48 0-2.4.24-4.56.96-6.48.72-1.92 1.68-3.6 2.94-4.92 1.26-1.32 2.82-2.4 4.62-3.12 1.8-.72 3.78-1.079 6-1.079s4.199.359 5.999 1.079c1.8.72 3.36 1.8 4.62 3.12 1.26 1.32 2.22 3 2.88 4.92.66 1.92 1.02 4.08 1.02 6.48 0 2.4-.36 4.56-1.02 6.48-.66 1.92-1.62 3.599-2.88 4.919zm-3.9-19.799c-1.44-2.04-3.719-3-6.719-3-1.56 0-2.88.24-3.96.72s-2.04 1.32-2.76 2.28c-.72.96-1.32 2.16-1.68 3.6-.36 1.44-.6 3.12-.6 4.92 0 1.8.24 3.36.6 4.8s.96 2.64 1.68 3.6c.72.959 1.68 1.679 2.76 2.159 1.08.48 2.4.84 3.96.84 3 0 5.279-.96 6.719-2.999 1.44-2.04 2.22-4.86 2.22-8.46 0-3.6-.78-6.42-2.22-8.46zm-27.06 21.059c0-.6-.36-1.02-.96-1.14-.36-.12-1.5-.36-3.42-.72V36.127c0-3.48-.9-6.3-2.58-8.34-1.8-2.16-4.32-3.179-7.56-3.179-3.719 0-7.079 1.619-10.079 4.859v.06l-.48-3.3c-.24-.72-.72-1.08-1.44-1.08h-7.44v2.52c0 .6.24 1.02.84 1.14.36.12 1.56.36 3.48.72v21.659l-3.48.66c-.6.12-.84.54-.84 1.14V55H0V0h55v55h-3.069v-2.074zm-16.08-24.059c4.26 0 6.36 2.52 6.36 7.32V55H31.952v-2.014c0-.6-.3-1.02-.9-1.14-2.16-.48-3.36-.72-3.48-.72V33.127c2.52-2.82 5.28-4.26 8.279-4.26z"/></svg>